<svg width="32" height="32" viewBox="0 0 32 32" fill="none" xmlns="http://www.w3.org/2000/svg">
<path d="M23.2005 14.1333C25.5645 14.1333 27.5692 12.5953 28.2687 10.4654C30.3878 10.8301 32 12.6768 32 14.9V17.1C32 19.5853 29.9853 21.6 27.5 21.6H21.6003V27.5C21.6003 29.9853 19.5855 32 17.1003 32H14.9003C12.415 32 10.4003 29.9853 10.4003 27.5V21.6H4.5C2.01472 21.6 0 19.5853 0 17.1V14.9C0 12.4147 2.01472 10.4 4.5 10.4H10.4003V4.5C10.4003 2.01472 12.415 0 14.9003 0H17.1003C19.3237 0 21.1705 1.61253 21.535 3.7319C19.4051 4.43143 17.8672 6.43612 17.8672 8.80001C17.8672 11.7455 20.255 14.1333 23.2005 14.1333Z" fill="white"/>
<path d="M26.0135 8.57058C26.0503 8.42865 25.9084 8.30514 25.772 8.36229C25.4457 8.49501 25.09 8.56874 24.7176 8.56874C23.1803 8.56874 21.9323 7.32264 21.9323 5.78344V5.77975C21.9323 5.63229 21.7646 5.54749 21.6466 5.63597C20.9701 6.14474 20.5332 6.95212 20.5332 7.86274C20.5332 8.60929 20.8263 9.2858 21.3037 9.78535L23.0567 11.6213C23.1987 11.7706 23.4365 11.7706 23.5803 11.6213L25.3333 9.78535C25.654 9.4517 25.8918 9.03511 26.0135 8.57058Z" fill="white"/>
<path d="M24.1087 5.69246C24.1263 5.65107 24.1823 5.65107 24.1999 5.69246L24.3827 6.12218C24.39 6.13925 24.4054 6.15097 24.4231 6.15293L24.8696 6.20231C24.9126 6.20707 24.9299 6.26293 24.8978 6.29327L24.5643 6.60823C24.551 6.62074 24.5452 6.63971 24.5489 6.65799L24.642 7.11823C24.651 7.16255 24.6056 7.19708 24.5682 7.17444L24.1793 6.93938C24.1638 6.93004 24.1448 6.93004 24.1293 6.93938L23.7404 7.17444C23.703 7.19708 23.6576 7.16255 23.6666 7.11823L23.7597 6.65799C23.7634 6.63971 23.7576 6.62074 23.7443 6.60823L23.4108 6.29327C23.3787 6.26293 23.396 6.20707 23.439 6.20231L23.8855 6.15293C23.9032 6.15097 23.9186 6.13925 23.9259 6.12218L24.1087 5.69246Z" fill="white"/>
</svg>
