<svg width="25" height="24" viewBox="0 0 25 24" fill="none" xmlns="http://www.w3.org/2000/svg">
<path fill-rule="evenodd" clip-rule="evenodd" d="M11.4544 2.79372C10.6911 3.13355 10.1065 4.14617 8.93723 6.17141L3.44415 15.6857C2.27488 17.7109 1.69025 18.7236 1.77758 19.5545C1.85376 20.2793 2.23389 20.9377 2.82347 21.366C3.49941 21.8571 4.66868 21.8571 7.00722 21.8571H17.9934C20.3319 21.8571 21.5012 21.8571 22.1771 21.366C22.7667 20.9377 23.1469 20.2793 23.223 19.5545C23.3104 18.7236 22.7257 17.7109 21.5565 15.6857L16.0634 6.17141C14.8941 4.14617 14.3095 3.13355 13.5462 2.79372C12.8804 2.49731 12.1202 2.49731 11.4544 2.79372ZM13.4269 9.08555L13.3293 14.6144C13.3213 15.0663 12.9527 15.4286 12.5006 15.4286C12.0486 15.4286 11.68 15.0663 11.672 14.6144L11.5744 9.08555C11.5653 8.56762 11.9826 8.14284 12.5006 8.14284C13.0187 8.14284 13.436 8.56762 13.4269 9.08555ZM13.5717 17.5714C13.5717 18.1631 13.092 18.6428 12.5003 18.6428C11.9086 18.6428 11.4289 18.1631 11.4289 17.5714C11.4289 16.9797 11.9086 16.5 12.5003 16.5C13.092 16.5 13.5717 16.9797 13.5717 17.5714Z" fill="#F9594A"/>
</svg>
