<svg width="24" height="24" viewBox="0 0 24 24" fill="none" xmlns="http://www.w3.org/2000/svg">
<path fill-rule="evenodd" clip-rule="evenodd" d="M12.0002 21.8571C17.4442 21.8571 21.8574 17.4439 21.8574 12C21.8574 6.55602 17.4442 2.14282 12.0002 2.14282C6.55626 2.14282 2.14307 6.55602 2.14307 12C2.14307 17.4439 6.55626 21.8571 12.0002 21.8571ZM15.4287 9.85711C15.4287 11.9873 13.8937 13.7142 12.0001 13.7142C10.1066 13.7142 8.57157 11.9873 8.57157 9.85711C8.57157 7.72687 10.1066 5.99997 12.0001 5.99997C13.8937 5.99997 15.4287 7.72687 15.4287 9.85711ZM17.5794 17.0799C17.8323 17.2536 17.9588 17.3404 18.0327 17.5044C18.0885 17.6282 18.1007 17.8313 18.0601 17.9609C18.0063 18.1325 17.8903 18.2345 17.6584 18.4385C16.1488 19.7662 14.1685 20.5714 12.0001 20.5714C9.83165 20.5714 7.85129 19.7662 6.3417 18.4385C6.10981 18.2345 5.99387 18.1325 5.94006 17.9609C5.89943 17.8313 5.91161 17.6282 5.96743 17.5044C6.04135 17.3404 6.16783 17.2536 6.42078 17.0799C7.92014 16.0505 9.86931 15.4285 12.0001 15.4285C14.1308 15.4285 16.08 16.0505 17.5794 17.0799Z" fill="#8E8E93"/>
</svg>
