<svg width="24" height="24" viewBox="0 0 24 24" fill="none" xmlns="http://www.w3.org/2000/svg">
<path fill-rule="evenodd" clip-rule="evenodd" d="M11.9999 21.4286C17.2071 21.4286 21.4284 17.2072 21.4284 12C21.4284 6.79273 17.2071 2.57141 11.9999 2.57141C6.7926 2.57141 2.57129 6.79273 2.57129 12C2.57129 17.2072 6.7926 21.4286 11.9999 21.4286ZM16.5396 8.56C16.77 8.183 16.6512 7.69061 16.2742 7.46021C15.8972 7.22982 15.4048 7.34868 15.1744 7.72568L11.0278 14.5109L8.74478 11.9018C8.45383 11.5692 7.94842 11.5355 7.61591 11.8265C7.28341 12.1174 7.24971 12.6228 7.54066 12.9554L10.5407 16.3839C10.7083 16.5755 10.9571 16.6759 11.2107 16.6542C11.4644 16.6326 11.6926 16.4915 11.8253 16.2743L16.5396 8.56Z" fill="#9DC546"/>
</svg>
