<svg width="24" height="24" viewBox="0 0 24 24" fill="none" xmlns="http://www.w3.org/2000/svg">
<path fill-rule="evenodd" clip-rule="evenodd" d="M11.9999 21.4286C17.2071 21.4286 21.4284 17.2072 21.4284 12C21.4284 6.79273 17.2071 2.57141 11.9999 2.57141C6.7926 2.57141 2.57129 6.79273 2.57129 12C2.57129 17.2072 6.7926 21.4286 11.9999 21.4286ZM12.6856 5.99998C12.6856 5.62127 12.3786 5.31427 11.9999 5.31427C11.6212 5.31427 11.3141 5.62127 11.3141 5.99998V12.1714H6.857C6.47829 12.1714 6.17129 12.4784 6.17129 12.8571C6.17129 13.2358 6.47829 13.5428 6.857 13.5428H11.9999C12.3786 13.5428 12.6856 13.2358 12.6856 12.8571V5.99998Z" fill="#9DC546"/>
</svg>
