<svg width="24" height="24" viewBox="0 0 24 24" fill="none" xmlns="http://www.w3.org/2000/svg">
<path d="M18.7198 11.0399H12.9598V5.27995C12.9598 5.02534 12.8587 4.78116 12.6786 4.60112C12.4986 4.42109 12.2544 4.31995 11.9998 4.31995C11.7452 4.31995 11.501 4.42109 11.321 4.60112C11.141 4.78116 11.0398 5.02534 11.0398 5.27995V11.0399H5.27982C5.02522 11.0399 4.78104 11.1411 4.601 11.3211C4.42097 11.5012 4.31982 11.7453 4.31982 11.9999C4.31982 12.2546 4.42097 12.4987 4.601 12.6788C4.78104 12.8588 5.02522 12.9599 5.27982 12.9599H11.0398V18.7199C11.0398 18.9746 11.141 19.2187 11.321 19.3988C11.501 19.5788 11.7452 19.6799 11.9998 19.6799C12.2544 19.6799 12.4986 19.5788 12.6786 19.3988C12.8587 19.2187 12.9598 18.9746 12.9598 18.7199V12.9599H18.7198C18.9744 12.9599 19.2186 12.8588 19.3986 12.6788C19.5787 12.4987 19.6798 12.2546 19.6798 11.9999C19.6798 11.7453 19.5787 11.5012 19.3986 11.3211C19.2186 11.1411 18.9744 11.0399 18.7198 11.0399Z" fill="#151515"/>
</svg>
