<svg width="36" height="36" viewBox="0 0 36 36" fill="none" xmlns="http://www.w3.org/2000/svg">
<path fill-rule="evenodd" clip-rule="evenodd" d="M18.0049 12.9951C16.9003 12.9951 16.0049 12.0997 16.0049 10.9951C16.0049 9.89055 16.9003 8.99512 18.0049 8.99512C19.1095 8.99512 20.0049 9.89055 20.0049 10.9951C20.0049 12.0997 19.1095 12.9951 18.0049 12.9951ZM18.0049 19.9951C16.9003 19.9951 16.0049 19.0997 16.0049 17.9951C16.0049 16.8905 16.9003 15.9951 18.0049 15.9951C19.1095 15.9951 20.0049 16.8905 20.0049 17.9951C20.0049 19.0997 19.1095 19.9951 18.0049 19.9951ZM16.0049 24.9951C16.0049 26.0997 16.9003 26.9951 18.0049 26.9951C19.1095 26.9951 20.0049 26.0997 20.0049 24.9951C20.0049 23.8905 19.1095 22.9951 18.0049 22.9951C16.9003 22.9951 16.0049 23.8905 16.0049 24.9951Z" fill="black"/>
</svg>
