<svg width="24" height="24" viewBox="0 0 24 24" fill="none" xmlns="http://www.w3.org/2000/svg">
<g clip-path="url(#clip0_108_7256)">
<path fill-rule="evenodd" clip-rule="evenodd" d="M12.7071 2.70903C12.5195 2.5215 12.2652 2.41614 12 2.41614C11.7347 2.41614 11.4804 2.5215 11.2929 2.70903L6.44257 7.55933C6.05205 7.94986 6.05205 8.58302 6.44257 8.97355C6.8331 9.36407 7.46626 9.36407 7.85679 8.97354L11 5.83036V14.1946C11 14.7469 11.4477 15.1946 12 15.1946C12.5522 15.1946 13 14.7469 13 14.1946V5.83036L16.1431 8.97354C16.5337 9.36407 17.1668 9.36407 17.5573 8.97355C17.9479 8.58302 17.9479 7.94986 17.5573 7.55933L12.7071 2.70903ZM5.45508 14.7335C5.45508 14.1812 5.00736 13.7335 4.45508 13.7335C3.9028 13.7335 3.45508 14.1812 3.45508 14.7335V16.1347V16.1738V16.1738C3.45506 16.7441 3.45505 17.2315 3.48777 17.632C3.52219 18.0533 3.59775 18.4657 3.79903 18.8608C4.10158 19.4545 4.58433 19.9373 5.17811 20.2399C5.57314 20.4411 5.98559 20.5167 6.40689 20.5511C6.8074 20.5838 7.29478 20.5838 7.86508 20.5838L7.90417 20.5838H16.0957L16.1348 20.5838C16.7051 20.5838 17.1925 20.5838 17.593 20.5511C18.0143 20.5167 18.4268 20.4411 18.8218 20.2399C19.4156 19.9373 19.8983 19.4545 20.2009 18.8608C20.4022 18.4657 20.4777 18.0533 20.5121 17.632C20.5449 17.2315 20.5449 16.7441 20.5448 16.1739V16.1738V16.1347V14.7335C20.5448 14.1812 20.0971 13.7335 19.5448 13.7335C18.9926 13.7335 18.5448 14.1812 18.5448 14.7335V16.1347C18.5448 16.7549 18.5441 17.1598 18.5188 17.4691C18.4945 17.7667 18.4525 17.8867 18.4189 17.9528C18.3081 18.1702 18.1313 18.347 17.9138 18.4578C17.8477 18.4915 17.7278 18.5334 17.4302 18.5578C17.1209 18.583 16.7159 18.5838 16.0957 18.5838H7.90417C7.28403 18.5838 6.87906 18.583 6.56976 18.5578C6.27213 18.5334 6.15219 18.4915 6.08609 18.4578C5.86864 18.347 5.69184 18.1702 5.58104 17.9528C5.54737 17.8867 5.50545 17.7667 5.48113 17.4691C5.45586 17.1598 5.45508 16.7549 5.45508 16.1347V14.7335Z" fill="#0D0D12"/>
</g>
<defs>
<clipPath id="clip0_108_7256">
<rect width="24" height="24" fill="white"/>
</clipPath>
</defs>
</svg>
