<svg width="24" height="24" viewBox="0 0 24 24" fill="none" xmlns="http://www.w3.org/2000/svg">
<path fill-rule="evenodd" clip-rule="evenodd" d="M11.9999 21.4286C17.2071 21.4286 21.4284 17.2072 21.4284 12C21.4284 6.79273 17.2071 2.57141 11.9999 2.57141C6.7926 2.57141 2.57129 6.79273 2.57129 12C2.57129 17.2072 6.7926 21.4286 11.9999 21.4286ZM8.0056 8.00556C8.31802 7.69314 8.82455 7.69314 9.13697 8.00556L11.9999 10.8684L14.8627 8.00556C15.1752 7.69314 15.6817 7.69314 15.9941 8.00556C16.3065 8.31798 16.3065 8.82451 15.9941 9.13693L13.1312 11.9998L15.9941 14.8627C16.3065 15.1751 16.3065 15.6817 15.9941 15.9941C15.6817 16.3065 15.1752 16.3065 14.8627 15.9941L11.9999 13.1312L9.13697 15.9941C8.82455 16.3065 8.31802 16.3065 8.0056 15.9941C7.69318 15.6817 7.69318 15.1751 8.0056 14.8627L10.8685 11.9998L8.0056 9.13693C7.69318 8.82451 7.69318 8.31798 8.0056 8.00556Z" fill="#C54646"/>
</svg>
